<?xml version="1.0" encoding="utf-8"?>
<!-- Generator: Adobe Illustrator 14.0.0, SVG Export Plug-In . SVG Version: 6.00 Build 43363)  -->
<!DOCTYPE svg PUBLIC "-//W3C//DTD SVG 1.1//EN" "http://www.w3.org/Graphics/SVG/1.1/DTD/svg11.dtd">
<svg version="1.1" id="Ebene_1" xmlns="http://www.w3.org/2000/svg" xmlns:xlink="http://www.w3.org/1999/xlink" x="0px" y="0px"
	 width="595.28px" height="841.89px" viewBox="0 0 595.28 841.89" enable-background="new 0 0 595.28 841.89" xml:space="preserve">
<g>
	<path fill="none" stroke="#000000" d="M304.562,416.745c-0.453,1.011-1.607,1.73-2.96,1.73s-2.505-0.719-2.959-1.73v-0.001
		c0.452-1.011,1.606-1.73,2.96-1.73C302.955,415.014,304.108,415.733,304.562,416.745L304.562,416.745z"/>
	<circle cx="301.614" cy="416.744" r="0.721"/>
	<path d="M300.893,418.476v5.202l-5.562-9.011h-1.779v4.72h-1.466c-1.094,0-1.983,0.89-1.983,1.983c0,1.093,0.89,1.983,1.983,1.983
		h3.29c0.267,0,0.483,0.216,0.483,0.482c0,0.266-0.217,0.482-0.483,0.482h-4.819v1.5h4.819c1.093,0,1.983-0.89,1.983-1.982
		c0-1.094-0.891-1.983-1.983-1.983h-3.29c-0.267,0-0.483-0.217-0.483-0.483c0-0.267,0.217-0.483,0.483-0.483h2.903v-0.018h0.005
		v-4.05l5.644,9h1.697v-7.343H300.893z"/>
</g>
<path fill="none" stroke="#000000" stroke-width="1.5" d="M297.352,432.984c1.775,0,3.303-0.336,4.585-1.008
	c1.279-0.672,2.333-1.566,3.158-2.684c0.823-1.115,1.432-2.409,1.826-3.88c0.393-1.472,0.59-3.007,0.59-4.604
	c0-1.902-0.235-3.607-0.703-5.118c-0.471-1.509-1.148-2.795-2.036-3.862c-0.889-1.065-1.967-1.876-3.235-2.435
	c-1.268-0.557-2.688-0.836-4.261-0.836c-1.751,0-3.266,0.342-4.548,1.027c-1.279,0.684-2.333,1.591-3.157,2.72
	c-0.824,1.13-1.433,2.429-1.826,3.9c-0.395,1.471-0.59,3.006-0.59,4.604c0,1.623,0.195,3.17,0.59,4.643
	c0.394,1.471,1.002,2.764,1.826,3.88c0.824,1.117,1.878,2.004,3.157,2.664C294.01,432.654,295.55,432.984,297.352,432.984z"/>
</svg>
